#tb 0: 1/44100
#media_type 0: audio
#codec_id 0: pcm_s16le
#sample_rate 0: 44100
#channel_layout_name 0: stereo
0,          0,          0,     4096,    16384, 0xce9de20d
0,       4096,       4096,     4096,    16384, 0xf67ee93b
0,       8192,       8192,     4096,    16384, 0xf6e6d461
0,      12288,      12288,     4096,    16384, 0xf82ee0ad
0,      16384,      16384,     4096,    16384, 0x840ee65b
0,      20480,      20480,     4096,    16384, 0x2231d847
0,      24576,      24576,     4096,    16384, 0x8f36e2ff
0,      28672,      28672,     4096,    16384, 0x9d92e731
0,      32768,      32768,     4096,    16384, 0x88eae365
0,      36864,      36864,     4096,    16384, 0xf67ee93b
0,      40960,      40960,     4096,    16384, 0xc69ca687
0,      45056,      45056,     4096,    16384, 0x6c8b77ed
0,      49152,      49152,     4096,    16384, 0x2cd16f3d
0,      53248,      53248,     4096,    16384, 0xff3d0332
0,      57344,      57344,     4096,    16384, 0xce3ee19d
0,      61440,      61440,     4096,    16384, 0x1b09f9a1
0,      65536,      65536,     4096,    16384, 0xf0971e9c
0,      69632,      69632,     4096,    16384, 0xb8850316
0,      73728,      73728,     4096,    16384, 0x93509c6f
0,      77824,      77824,     4096,    16384, 0x7d74e3a1
0,      81920,      81920,     4096,    16384, 0x9e75dceb
0,      86016,      86016,     4096,    16384, 0x6343dcb5
0,      90112,      90112,     4096,    16384, 0x9b019581
0,      94208,      94208,     4096,    16384, 0xc7ac22b0
0,      98304,      98304,     4096,    16384, 0x9c16ad61
0,     102400,     102400,     4096,    16384, 0x7e4adae3
0,     106496,     106496,     4096,    16384, 0x75320f22
0,     110592,     110592,     4096,    16384, 0x173c2f9e
0,     114688,     114688,     4096,    16384, 0x35a89857
0,     118784,     118784,     4096,    16384, 0xb064eae7
0,     122880,     122880,     4096,    16384, 0xf9e82665
0,     126976,     126976,     4096,    16384, 0xc451ff2c
0,     131072,     131072,     4096,    16384, 0xfa1edb59
0,     135168,     135168,     4096,    16384, 0x8013f9eb
0,     139264,     139264,     4096,    16384, 0xd3b6be64
0,     143360,     143360,     4096,    16384, 0x028dae7e
0,     147456,     147456,     4096,    16384, 0x7dbcf44e
0,     151552,     151552,     4096,    16384, 0x5dd6dc10
0,     155648,     155648,     4096,    16384, 0x9aa2db2f
0,     159744,     159744,     4096,    16384, 0xfa68c18f
0,     163840,     163840,     4096,    16384, 0x12d3eff6
0,     167936,     167936,     4096,    16384, 0xde380e83
0,     172032,     172032,     4096,    16384, 0xe3bdc281
0,     176128,     176128,     4096,    16384, 0x1fcac9b6
0,     180224,     180224,     4096,    16384, 0xd433d780
0,     184320,     184320,     4096,    16384, 0xd057d7a6
0,     188416,     188416,     4096,    16384, 0x32c6d4db
0,     192512,     192512,     4096,    16384, 0x4073c5d9
0,     196608,     196608,     4096,    16384, 0xd0f6e736
0,     200704,     200704,     4096,    16384, 0xaf0fe40b
0,     204800,     204800,     4096,    16384, 0x529fe1df
0,     208896,     208896,     4096,    16384, 0x28eaf1ac
0,     212992,     212992,     4096,    16384, 0xd433d780
0,     217088,     217088,     4096,    16384, 0xd057d7a6
0,     221184,     221184,     4096,    16384, 0x32c6d4db
0,     225280,     225280,     4096,    16384, 0x4073c5d9
0,     229376,     229376,     4096,    16384, 0xd0f6e736
0,     233472,     233472,     4096,    16384, 0xaf0fe40b
0,     237568,     237568,     4096,    16384, 0x529fe1df
0,     241664,     241664,     4096,    16384, 0x28eaf1ac
0,     245760,     245760,     4096,    16384, 0xd433d780
0,     249856,     249856,     4096,    16384, 0xd057d7a6
0,     253952,     253952,     4096,    16384, 0x32c6d4db
0,     258048,     258048,     4096,    16384, 0x4073c5d9
0,     262144,     262144,     2456,     9824, 0x040d33c4
0,     264600,     264600,     1411,     5644, 0x34920173
